<?xml version="1.0" standalone="no"?>
<!DOCTYPE svg PUBLIC "-//W3C//DTD SVG 20010904//EN"
 "http://www.w3.org/TR/2001/REC-SVG-20010904/DTD/svg10.dtd">
<svg version="1.0" xmlns="http://www.w3.org/2000/svg"
 width="1440.000000pt" height="1440.000000pt" viewBox="0 0 1440.000000 1440.000000"
 preserveAspectRatio="xMidYMid meet">
<metadata>
Created by potrace 1.14, written by Peter Selinger 2001-2017
</metadata>
<g transform="translate(0.000000,1440.000000) scale(0.100000,-0.100000)"
fill="#000000" stroke="none">
<path d="M225 14393 c-76 -16 -163 -88 -199 -163 l-21 -45 -2 -6972 c-3 -6925
-3 -6973 17 -7025 26 -68 99 -142 165 -168 49 -19 151 -19 7025 -17 l6975 2
47 22 c57 28 111 83 141 143 l22 45 3 6972 c2 6925 2 6973 -18 7025 -26 68
-99 142 -165 168 -49 19 -155 19 -7010 18 -3828 0 -6969 -2 -6980 -5z"/>
</g>
</svg>
